<mxfile host="app.diagrams.net" modified="2022-11-25T06:06:23.962Z" agent="5.0 (Macintosh; Intel Mac OS X 10_15_7) AppleWebKit/537.36 (KHTML, like Gecko) Chrome/107.0.0.0 Safari/537.36" etag="d8dnrhRsnbMq3fqTBKkt" version="20.6.0" type="github">
  <diagram name="Page-1" id="8ce9d11a-91a2-4d17-14d8-a56ed91bf033">
    <mxGraphModel dx="1113" dy="722" grid="1" gridSize="10" guides="1" tooltips="1" connect="1" arrows="1" fold="1" page="1" pageScale="1" pageWidth="1100" pageHeight="850" background="none" math="0" shadow="0">
      <root>
        <mxCell id="0" />
        <mxCell id="1" parent="0" />
        <mxCell id="17ea667e15c223fc-2" value="&lt;font style=&quot;font-size: 22px;&quot;&gt;Miner&lt;/font&gt;" style="rounded=1;whiteSpace=wrap;html=1;shadow=0;labelBackgroundColor=none;strokeWidth=1;fontFamily=Verdana;fontSize=12;align=center;" parent="1" vertex="1">
          <mxGeometry x="320" y="60" width="120" height="80" as="geometry" />
        </mxCell>
        <mxCell id="17ea667e15c223fc-18" value="&lt;font style=&quot;font-size: 22px;&quot;&gt;Client&lt;/font&gt;" style="rounded=1;whiteSpace=wrap;html=1;shadow=0;labelBackgroundColor=none;strokeWidth=1;fontFamily=Verdana;fontSize=12;align=center;" parent="1" vertex="1">
          <mxGeometry x="705" y="60" width="120" height="80" as="geometry" />
        </mxCell>
        <mxCell id="zSoESYTFai7nDonjyv8B-2" value="&lt;font style=&quot;font-size: 22px;&quot;&gt;Staker&lt;/font&gt;" style="rounded=1;whiteSpace=wrap;html=1;shadow=0;labelBackgroundColor=none;strokeWidth=1;fontFamily=Verdana;fontSize=12;align=center;" vertex="1" parent="1">
          <mxGeometry x="510" y="220" width="120" height="80" as="geometry" />
        </mxCell>
        <mxCell id="zSoESYTFai7nDonjyv8B-4" value="" style="endArrow=classic;html=1;rounded=0;exitX=0;exitY=0.25;exitDx=0;exitDy=0;strokeWidth=3;entryX=1;entryY=0.25;entryDx=0;entryDy=0;" edge="1" parent="1" source="17ea667e15c223fc-18" target="17ea667e15c223fc-2">
          <mxGeometry width="50" height="50" relative="1" as="geometry">
            <mxPoint x="300" y="330" as="sourcePoint" />
            <mxPoint x="350" y="80" as="targetPoint" />
          </mxGeometry>
        </mxCell>
        <mxCell id="zSoESYTFai7nDonjyv8B-5" value="" style="endArrow=classic;html=1;rounded=0;entryX=0;entryY=0.656;entryDx=0;entryDy=0;entryPerimeter=0;exitX=1.008;exitY=0.656;exitDx=0;exitDy=0;exitPerimeter=0;strokeColor=#000000;strokeWidth=3;dashed=1;" edge="1" parent="1" source="17ea667e15c223fc-2" target="17ea667e15c223fc-18">
          <mxGeometry width="50" height="50" relative="1" as="geometry">
            <mxPoint x="280" y="420" as="sourcePoint" />
            <mxPoint x="355" y="120" as="targetPoint" />
          </mxGeometry>
        </mxCell>
        <mxCell id="zSoESYTFai7nDonjyv8B-8" value="" style="shape=flexArrow;endArrow=classic;html=1;rounded=0;entryX=0.75;entryY=0;entryDx=0;entryDy=0;exitX=0.5;exitY=1;exitDx=0;exitDy=0;" edge="1" parent="1" source="17ea667e15c223fc-18" target="zSoESYTFai7nDonjyv8B-2">
          <mxGeometry width="50" height="50" relative="1" as="geometry">
            <mxPoint x="880" y="140" as="sourcePoint" />
            <mxPoint x="650" y="330" as="targetPoint" />
          </mxGeometry>
        </mxCell>
        <mxCell id="zSoESYTFai7nDonjyv8B-9" value="&lt;font style=&quot;font-size: 18px;&quot;&gt;On-chain Token&lt;/font&gt;" style="text;html=1;strokeColor=none;fillColor=none;align=center;verticalAlign=middle;whiteSpace=wrap;rounded=0;fontStyle=1" vertex="1" parent="1">
          <mxGeometry x="490" y="50" width="160" height="30" as="geometry" />
        </mxCell>
        <mxCell id="zSoESYTFai7nDonjyv8B-10" value="Computational resource" style="text;html=1;strokeColor=none;fillColor=none;align=center;verticalAlign=middle;whiteSpace=wrap;rounded=0;strokeWidth=0;fontStyle=1;fontSize=18;" vertex="1" parent="1">
          <mxGeometry x="451.25" y="110" width="237.5" height="30" as="geometry" />
        </mxCell>
        <mxCell id="zSoESYTFai7nDonjyv8B-11" value="" style="shape=flexArrow;endArrow=classic;html=1;rounded=0;exitX=0.5;exitY=1;exitDx=0;exitDy=0;entryX=0.25;entryY=0;entryDx=0;entryDy=0;" edge="1" parent="1" source="17ea667e15c223fc-2" target="zSoESYTFai7nDonjyv8B-2">
          <mxGeometry width="50" height="50" relative="1" as="geometry">
            <mxPoint x="790" y="140" as="sourcePoint" />
            <mxPoint x="560" y="400" as="targetPoint" />
          </mxGeometry>
        </mxCell>
        <mxCell id="zSoESYTFai7nDonjyv8B-12" value="Credit" style="text;html=1;strokeColor=none;fillColor=none;align=center;verticalAlign=middle;whiteSpace=wrap;rounded=0;strokeWidth=0;fontSize=18;fontStyle=1" vertex="1" parent="1">
          <mxGeometry x="390" y="180" width="90" height="30" as="geometry" />
        </mxCell>
        <mxCell id="zSoESYTFai7nDonjyv8B-13" value="Credit" style="text;html=1;strokeColor=none;fillColor=none;align=center;verticalAlign=middle;whiteSpace=wrap;rounded=0;strokeWidth=0;fontSize=18;fontStyle=1" vertex="1" parent="1">
          <mxGeometry x="670" y="180" width="90" height="30" as="geometry" />
        </mxCell>
        <mxCell id="zSoESYTFai7nDonjyv8B-14" value="&lt;font style=&quot;font-size: 22px;&quot;&gt;New Block&lt;/font&gt;" style="shape=ext;double=1;whiteSpace=wrap;html=1;aspect=fixed;strokeWidth=0;fontSize=18;" vertex="1" parent="1">
          <mxGeometry x="510" y="350" width="120" height="120" as="geometry" />
        </mxCell>
        <mxCell id="zSoESYTFai7nDonjyv8B-16" value="" style="shape=flexArrow;endArrow=classic;html=1;rounded=0;fontSize=22;entryX=0.5;entryY=0;entryDx=0;entryDy=0;exitX=0.5;exitY=1;exitDx=0;exitDy=0;" edge="1" parent="1" source="zSoESYTFai7nDonjyv8B-2" target="zSoESYTFai7nDonjyv8B-14">
          <mxGeometry width="50" height="50" relative="1" as="geometry">
            <mxPoint x="540" y="330" as="sourcePoint" />
            <mxPoint x="590" y="280" as="targetPoint" />
            <Array as="points" />
          </mxGeometry>
        </mxCell>
        <mxCell id="zSoESYTFai7nDonjyv8B-19" value="&lt;font style=&quot;font-size: 18px;&quot;&gt;&lt;b&gt;Credit&lt;/b&gt;&lt;/font&gt;" style="text;html=1;strokeColor=none;fillColor=none;align=center;verticalAlign=middle;whiteSpace=wrap;rounded=0;strokeWidth=0;fontSize=22;" vertex="1" parent="1">
          <mxGeometry x="490" y="310" width="60" height="30" as="geometry" />
        </mxCell>
        <mxCell id="zSoESYTFai7nDonjyv8B-21" value="" style="strokeWidth=2;html=1;shape=mxgraph.flowchart.annotation_2;align=left;labelPosition=right;pointerEvents=1;fontSize=18;rotation=90;" vertex="1" parent="1">
          <mxGeometry x="540" y="395" width="60" height="200" as="geometry" />
        </mxCell>
        <mxCell id="zSoESYTFai7nDonjyv8B-26" value="Block Reward" style="ellipse;whiteSpace=wrap;html=1;strokeWidth=0;fontSize=18;" vertex="1" parent="1">
          <mxGeometry x="400" y="520" width="140" height="80" as="geometry" />
        </mxCell>
        <mxCell id="zSoESYTFai7nDonjyv8B-47" style="edgeStyle=orthogonalEdgeStyle;shape=link;rounded=0;orthogonalLoop=1;jettySize=auto;html=1;strokeColor=#000000;strokeWidth=1;fontSize=18;startArrow=block;endArrow=block;" edge="1" parent="1" source="zSoESYTFai7nDonjyv8B-27">
          <mxGeometry relative="1" as="geometry">
            <mxPoint x="675" y="590" as="targetPoint" />
          </mxGeometry>
        </mxCell>
        <mxCell id="zSoESYTFai7nDonjyv8B-27" value="Complete Tasks" style="ellipse;whiteSpace=wrap;html=1;strokeWidth=0;fontSize=18;" vertex="1" parent="1">
          <mxGeometry x="600" y="520" width="150" height="80" as="geometry" />
        </mxCell>
        <mxCell id="zSoESYTFai7nDonjyv8B-30" value="On-chain Token" style="text;html=1;strokeColor=none;fillColor=none;align=center;verticalAlign=middle;whiteSpace=wrap;rounded=0;strokeWidth=0;fontSize=18;fontStyle=1" vertex="1" parent="1">
          <mxGeometry x="280" y="365" width="120" height="30" as="geometry" />
        </mxCell>
        <mxCell id="zSoESYTFai7nDonjyv8B-35" value="" style="edgeStyle=segmentEdgeStyle;endArrow=classic;html=1;rounded=0;strokeColor=#000000;strokeWidth=3;fontSize=18;exitX=0;exitY=0.5;exitDx=0;exitDy=0;entryX=0;entryY=0.5;entryDx=0;entryDy=0;" edge="1" parent="1" source="zSoESYTFai7nDonjyv8B-26" target="zSoESYTFai7nDonjyv8B-2">
          <mxGeometry width="50" height="50" relative="1" as="geometry">
            <mxPoint x="380" y="490" as="sourcePoint" />
            <mxPoint x="390" y="230" as="targetPoint" />
            <Array as="points">
              <mxPoint x="390" y="560" />
              <mxPoint x="390" y="260" />
            </Array>
          </mxGeometry>
        </mxCell>
        <mxCell id="zSoESYTFai7nDonjyv8B-38" value="&lt;b&gt;Credit&lt;/b&gt;" style="ellipse;shape=doubleEllipse;whiteSpace=wrap;html=1;strokeWidth=0;fontSize=18;" vertex="1" parent="1">
          <mxGeometry x="830" y="250" width="120" height="90" as="geometry" />
        </mxCell>
        <mxCell id="zSoESYTFai7nDonjyv8B-39" value="&lt;b&gt;On-chain Token&lt;/b&gt;" style="ellipse;shape=doubleEllipse;whiteSpace=wrap;html=1;strokeWidth=0;fontSize=18;" vertex="1" parent="1">
          <mxGeometry x="730" y="370" width="120" height="80" as="geometry" />
        </mxCell>
        <mxCell id="zSoESYTFai7nDonjyv8B-40" value="&lt;b&gt;ETH&lt;/b&gt;" style="ellipse;shape=doubleEllipse;whiteSpace=wrap;html=1;strokeWidth=0;fontSize=18;" vertex="1" parent="1">
          <mxGeometry x="940" y="365" width="120" height="90" as="geometry" />
        </mxCell>
        <mxCell id="zSoESYTFai7nDonjyv8B-44" value="" style="endArrow=classic;startArrow=classic;html=1;rounded=0;strokeColor=#000000;strokeWidth=1;fontSize=18;shape=link;entryX=0;entryY=0.5;entryDx=0;entryDy=0;exitX=1;exitY=0.5;exitDx=0;exitDy=0;" edge="1" parent="1" source="zSoESYTFai7nDonjyv8B-39" target="zSoESYTFai7nDonjyv8B-40">
          <mxGeometry width="50" height="50" relative="1" as="geometry">
            <mxPoint x="870" y="410" as="sourcePoint" />
            <mxPoint x="690" y="300" as="targetPoint" />
          </mxGeometry>
        </mxCell>
        <mxCell id="zSoESYTFai7nDonjyv8B-45" value="" style="endArrow=classic;startArrow=classic;html=1;rounded=0;strokeColor=#000000;strokeWidth=1;fontSize=18;shape=link;entryX=0;entryY=1;entryDx=0;entryDy=0;exitX=0.5;exitY=0;exitDx=0;exitDy=0;" edge="1" parent="1" source="zSoESYTFai7nDonjyv8B-39" target="zSoESYTFai7nDonjyv8B-38">
          <mxGeometry width="50" height="50" relative="1" as="geometry">
            <mxPoint x="860" y="420" as="sourcePoint" />
            <mxPoint x="950" y="420" as="targetPoint" />
            <Array as="points" />
          </mxGeometry>
        </mxCell>
        <mxCell id="zSoESYTFai7nDonjyv8B-51" value="" style="shape=flexArrow;rounded=0;fixDash=1;endArrow=none;strokeWidth=1;fillColor=#ffffff;edgeStyle=orthogonalEdgeStyle;html=1;strokeColor=#000000;fontSize=18;exitX=0;exitY=0.5;exitDx=0;exitDy=0;endFill=0;startArrow=block;" edge="1" parent="1" source="17ea667e15c223fc-2">
          <mxGeometry width="60" height="40" relative="1" as="geometry">
            <mxPoint x="270" y="100" as="sourcePoint" />
            <mxPoint x="670" y="600" as="targetPoint" />
            <Array as="points">
              <mxPoint x="180" y="100" />
              <mxPoint x="180" y="650" />
              <mxPoint x="670" y="650" />
            </Array>
          </mxGeometry>
        </mxCell>
        <mxCell id="zSoESYTFai7nDonjyv8B-52" value="Credit" style="text;html=1;strokeColor=none;fillColor=none;align=center;verticalAlign=middle;whiteSpace=wrap;rounded=0;strokeWidth=0;fontSize=18;fontStyle=1" vertex="1" parent="1">
          <mxGeometry x="350" y="650" width="90" height="30" as="geometry" />
        </mxCell>
      </root>
    </mxGraphModel>
  </diagram>
</mxfile>
